PathFileType	4	(X/Y/Z)	C:\Users\86182\Documents\cortex\Trimmed_M3_L6.trc
DataRate	CameraRate	NumFrames	NumMarkers	Units	OrigDataRate	OrigDataStartFrame	OrigNumFrames
100.00	100.00	       172	2	mm	100.00	1	       901
Frame#	Time	gripper			box			
		X1	Y1	Z1	X2	Y2	Z2	

1	0.000	274.91733	148.83305	192.89404	277.56317	147.32625	57.58046	
2	0.010	274.85156	148.83247	192.91068	277.54688	147.32043	57.57344	
3	0.020	274.85452	148.80446	192.90611	277.53397	147.31584	57.56780	
4	0.030	274.86108	148.82912	192.90822	277.53720	147.31699	57.56922	
5	0.040	274.85498	148.82469	192.90271	277.53073	147.31467	57.56641	
6	0.050	274.93750	148.84230	192.88068	277.53073	147.31467	57.56641	
7	0.060	274.87021	148.82878	192.90552	277.55014	147.32159	57.57483	
8	0.070	274.85898	148.80768	192.90373	277.50513	147.30554	57.55531	
9	0.080	274.87680	148.82652	192.90422	277.52106	147.31122	57.56224	
10	0.090	274.86526	148.80994	192.90694	277.56317	147.32625	57.58046	
11	0.100	274.88892	148.83409	192.90125	277.53397	147.31584	57.56780	
12	0.110	274.87936	148.83746	192.90370	277.56317	147.32625	57.58046	
13	0.120	274.88297	148.82153	192.89220	277.54367	147.31929	57.57202	
14	0.130	274.85562	148.82703	192.89709	277.53397	147.31584	57.56780	
15	0.140	274.88052	148.81636	192.90315	277.55338	147.32275	57.57623	
16	0.150	274.83331	148.82414	192.91519	277.54041	147.31813	57.57061	
17	0.160	274.86636	148.83595	192.90581	277.52753	147.31354	57.56502	
18	0.170	274.91058	148.84137	192.89584	277.56317	147.32625	57.58046	
19	0.180	274.90698	148.83952	192.89558	277.53397	147.31584	57.56780	
20	0.190	274.85199	148.82344	192.91045	277.54041	147.31813	57.57061	
21	0.200	274.87009	148.83179	192.90559	277.55661	147.32390	57.57765	
22	0.210	274.86566	148.82339	192.90494	277.52753	147.31354	57.56502	
23	0.220	274.88379	148.82059	192.89615	277.53073	147.31467	57.56641	
24	0.230	274.87811	148.80540	192.90363	277.55991	147.32509	57.57905	
25	0.240	274.87134	148.81905	192.89928	277.53720	147.31699	57.56922	
26	0.250	274.89304	148.81789	192.90001	277.51785	147.31007	57.56086	
27	0.260	274.86371	148.84004	192.90770	277.56317	147.32625	57.58046	
28	0.270	274.82883	148.81514	192.90755	277.50513	147.30554	57.55531	
29	0.280	274.90436	148.84061	192.89742	277.54367	147.31929	57.57202	
30	0.290	274.87915	148.84352	192.90384	277.56317	147.32625	57.58046	
31	0.300	274.88892	148.82475	192.88327	277.52859	147.32643	57.54265	
32	0.310	274.86844	148.80882	192.90611	277.53720	147.31699	57.56922	
33	0.320	274.89807	148.83981	192.89899	277.53720	147.31699	57.56922	
34	0.330	274.87354	148.82164	192.90421	277.56317	147.32625	57.58046	
35	0.340	274.88882	148.83713	192.90131	277.56317	147.32625	57.58046	
36	0.350	274.86984	148.84081	192.90614	277.56317	147.32625	57.58046	
37	0.360	274.88635	148.83156	192.89561	277.50830	147.30667	57.55671	
38	0.370	274.85419	148.83437	192.90926	277.54041	147.31813	57.57061	
39	0.380	274.82022	148.82265	192.91693	277.55991	147.32509	57.57905	
40	0.390	274.90881	148.83215	192.88365	277.51559	147.31865	57.54274	
41	0.400	274.87042	148.82877	192.90587	277.55338	147.32275	57.57623	
42	0.410	274.87082	148.80283	192.89091	277.54367	147.31929	57.57202	
43	0.420	274.86526	148.80994	192.90694	277.53073	147.31467	57.56641	
44	0.430	274.91394	148.83723	192.89496	277.56317	147.32625	57.58046	
45	0.440	274.89853	148.83617	192.89220	277.52927	147.31572	57.56292	
46	0.450	274.88641	148.82314	192.90175	277.55014	147.32159	57.57483	
47	0.460	274.86356	148.84302	192.90776	277.53720	147.31699	57.56922	
48	0.470	274.85620	148.82335	192.89064	277.49557	147.30214	57.55118	
49	0.480	274.87329	148.83366	192.90518	277.52429	147.31239	57.56363	
50	0.490	274.88275	148.83334	192.90280	277.55991	147.32509	57.57905	
51	0.500	274.86053	148.82405	192.90416	277.51785	147.31007	57.56086	
52	0.510	274.86621	148.85699	192.90726	277.55338	147.32275	57.57623	
53	0.520	274.85184	148.82646	192.91054	277.56317	147.32625	57.58046	
54	0.530	274.90433	148.82640	192.89310	277.54688	147.32043	57.57344	
55	0.540	274.89520	148.83488	192.89967	277.56317	147.32625	57.58046	
56	0.550	274.89758	148.84161	192.90138	277.55661	147.32390	57.57765	
57	0.560	274.83975	148.81891	192.91350	277.52106	147.31122	57.56224	
58	0.570	274.88000	148.82539	192.90340	277.54367	147.31929	57.57202	
59	0.580	274.87598	148.84464	192.90465	277.53397	147.31584	57.56780	
60	0.590	274.87329	148.83366	192.90518	277.56317	147.32625	57.58046	
61	0.600	274.88095	148.81033	192.90297	277.54367	147.31929	57.57202	
62	0.610	274.88602	148.82019	192.90065	277.54367	147.31929	57.57202	
63	0.620	274.90146	148.83568	192.89810	277.55991	147.32509	57.57905	
64	0.630	274.85425	148.82539	192.90836	277.50513	147.30554	57.55531	
65	0.640	274.89200	148.83601	192.90050	277.55991	147.32509	57.57905	
66	0.650	274.88931	148.81540	192.89238	277.54041	147.31813	57.57061	
67	0.660	274.87323	148.83669	192.90524	277.55338	147.32275	57.57623	
68	0.670	274.88336	148.81226	192.90121	277.56317	147.32625	57.58046	
69	0.680	274.89420	148.85304	192.89975	277.53720	147.31699	57.56922	
70	0.690	274.87003	148.83781	192.90607	277.56317	147.32625	57.58046	
71	0.700	274.89798	148.84285	192.89906	277.54688	147.32043	57.57344	
72	0.710	274.86206	148.81107	192.90776	277.53073	147.31467	57.56641	
73	0.720	274.89743	148.85495	192.89934	277.55014	147.32159	57.57483	
74	0.730	274.89160	148.84509	192.90070	277.56317	147.32625	57.58046	
75	0.740	274.88174	148.85748	192.90335	277.54688	147.32043	57.57344	
76	0.750	274.87982	148.82841	192.90347	277.55338	147.32275	57.57623	
77	0.760	274.90170	148.82959	192.89795	277.54868	147.32266	57.57128	
78	0.770	274.87845	148.86462	192.90427	277.51785	147.31007	57.56086	
79	0.780	274.90228	148.82051	192.89769	277.55661	147.32390	57.57765	
80	0.790	274.88467	148.84224	192.89825	277.52457	147.31561	57.55803	
81	0.800	274.93005	148.83769	192.89133	277.55014	147.32159	57.57483	
82	0.810	274.93326	148.83656	192.89050	277.54367	147.31929	57.57202	
83	0.820	274.91010	148.84746	192.89566	277.55338	147.32275	57.57623	
84	0.830	274.92282	148.84901	192.89285	277.55991	147.32509	57.57905	
85	0.840	274.87646	148.83255	192.90437	277.53073	147.31467	57.56641	
86	0.850	274.90161	148.83263	192.89803	277.53720	147.31699	57.56922	
87	0.860	274.83633	148.82603	192.91444	277.56317	147.32625	57.58046	
88	0.870	274.89505	148.83792	192.89975	277.53073	147.31467	57.56641	
89	0.880	274.89807	148.83981	192.89899	277.55991	147.32509	57.57905	
90	0.890	274.84500	148.84067	192.91243	277.53720	147.31699	57.56922	
91	0.900	274.91769	148.83006	192.89413	277.53397	147.31584	57.56780	
92	0.910	274.89148	148.84810	192.90076	277.56317	147.32625	57.58046	
93	0.920	274.86099	148.82611	192.90782	277.52429	147.31239	57.56363	
94	0.930	274.91458	148.82506	192.89464	277.51785	147.31007	57.56086	
95	0.940	274.92935	148.84372	192.89113	277.54688	147.32043	57.57344	
96	0.950	274.89771	148.84891	192.89920	277.52429	147.31239	57.56363	
97	0.960	274.90128	148.83870	192.89816	277.56317	147.32625	57.58046	
98	0.970	274.86981	148.83783	192.90573	277.56317	147.32625	57.58046	
99	0.980	274.91592	148.82346	192.89221	277.52106	147.31122	57.56224	
100	0.990	274.85471	148.83136	192.90987	277.55014	147.32159	57.57483	
101	1.000	274.82397	148.82446	192.91756	277.54041	147.31813	57.57061	
102	1.010	274.89136	148.85114	192.90083	277.55081	147.33128	57.55786	
103	1.020	274.83447	148.83812	192.91235	277.54367	147.31929	57.57202	
104	1.030	274.85727	148.84523	192.90938	277.56317	147.32625	57.58046	
105	1.040	274.82977	148.83423	192.91621	277.54367	147.31929	57.57202	
106	1.050	274.77606	148.80260	192.92403	277.53073	147.31467	57.56641	
107	1.060	274.75272	148.79509	192.93433	277.50830	147.30667	57.55671	
108	1.070	274.73105	148.77501	192.93361	277.42953	147.28531	57.57204	
109	1.080	274.69418	148.75655	192.95439	277.36288	147.25488	57.59095	
110	1.090	274.67667	148.76189	192.97893	277.29993	147.24713	57.62704	
111	1.100	274.62329	148.73318	193.03076	277.26288	147.18158	57.64748	
112	1.110	274.57715	148.66637	193.20399	277.29593	147.25339	57.62955	
113	1.120	274.54959	148.67853	193.30957	277.25623	147.21274	57.66069	
114	1.130	274.23743	148.66040	193.61838	277.23914	147.19499	57.67457	
115	1.140	274.09903	148.74464	193.72433	277.23633	147.18810	57.68413	
116	1.150	274.16833	148.74966	193.99750	277.17944	147.20029	57.71467	
117	1.160	274.34161	148.69881	194.08080	277.12338	147.20477	57.75281	
118	1.170	274.48309	148.63377	194.23343	277.63733	147.06331	57.74986	
119	1.180	274.52164	148.75122	194.60980	276.79187	147.28114	58.30627	
120	1.190	274.62479	148.59926	194.86034	276.84290	147.38873	58.54065	
121	1.200	274.85089	148.50937	195.01460	277.01041	147.32730	58.71169	
122	1.210	274.40503	148.76204	195.64664	277.08444	147.28740	58.94877	
123	1.220	274.17737	148.83745	196.09135	277.20795	147.35365	59.43981	
124	1.230	274.28506	148.83307	196.54572	277.10220	147.38919	59.95837	
125	1.240	274.42899	148.82184	196.60876	277.04092	147.41840	60.37409	
126	1.250	274.63510	148.75563	196.96684	276.95197	147.47684	60.71956	
127	1.260	274.42191	148.82237	197.40848	277.04239	147.50995	60.98621	
128	1.270	274.39169	148.99667	198.02287	276.90454	147.39323	61.25169	
129	1.280	274.27032	148.97360	198.33084	276.85303	147.46347	61.72844	
130	1.290	274.44037	148.88486	198.64935	277.72028	147.37024	62.04897	
131	1.300	274.45395	148.88824	199.17575	277.09921	147.50551	62.77488	
132	1.310	274.42670	148.90355	199.64203	276.97012	147.43474	63.22636	
133	1.320	274.25992	149.03633	200.17647	277.05319	147.49730	63.43975	
134	1.330	274.31662	148.97798	200.51172	277.03726	147.55559	63.88417	
135	1.340	274.53519	148.91089	200.99730	277.01450	147.61757	64.50086	
136	1.350	274.42914	149.01051	201.30258	277.08673	147.47008	64.92644	
137	1.360	274.47961	148.90744	201.84868	277.08850	147.48112	65.44921	
138	1.370	274.43423	149.01634	202.41765	277.16660	147.51282	65.67702	
139	1.380	274.64487	148.97784	202.72620	277.00409	147.56892	65.90103	
140	1.390	274.44968	148.99963	203.06010	277.42798	147.55695	66.19453	
141	1.400	274.53229	148.99992	203.38759	276.98502	147.50554	67.02211	
142	1.410	274.69626	148.87617	204.06763	277.14871	147.54472	67.48446	
143	1.420	274.68057	148.98453	204.49670	277.17465	147.55057	67.78766	
144	1.430	274.70569	148.98846	204.77919	277.15668	147.57829	68.22347	
145	1.440	274.57391	149.08688	205.12209	277.97943	147.34923	68.07650	
146	1.450	274.69669	148.95378	205.72469	276.86252	147.62753	69.02171	
147	1.460	274.53271	148.92564	206.03732	277.08255	147.52434	69.37778	
148	1.470	274.75400	148.98402	206.47636	277.14203	147.56924	69.96428	
149	1.480	275.05231	148.82338	207.00589	277.29727	147.58057	70.44337	
150	1.490	274.73224	148.90248	207.48709	278.09561	147.35907	70.21686	
151	1.500	274.78415	148.89977	207.80565	276.92572	147.59589	71.12355	
152	1.510	274.51135	149.03421	208.15340	277.03024	147.52133	71.52852	
153	1.520	275.40567	148.82455	208.69739	277.38705	147.55128	72.14822	
154	1.530	275.26056	148.79216	209.05653	277.15836	147.69843	72.56905	
155	1.540	274.97183	148.87790	209.51982	278.11224	147.33214	72.48460	
156	1.550	274.46783	149.01968	209.96207	276.98615	147.52391	73.28049	
157	1.560	274.54099	149.05780	210.34523	276.92526	147.59393	73.69247	
158	1.570	274.42392	149.15642	210.83986	276.99573	147.71219	73.92638	
159	1.580	274.53073	149.15131	211.22070	276.87482	147.75159	74.36853	
160	1.590	274.59692	149.11121	211.77383	277.01065	147.68225	74.84039	
161	1.600	274.58289	149.07574	212.10080	276.82111	147.65257	75.34433	
162	1.610	274.57269	149.07198	212.31822	276.87915	147.63315	75.74620	
163	1.620	274.48694	149.14661	212.74995	276.84595	147.65781	76.06171	
164	1.630	274.52515	149.11296	213.35281	276.81989	147.67529	76.33994	
165	1.640	274.56653	149.00618	213.88498	276.88431	147.70164	76.89908	
166	1.650	274.64142	148.97679	214.02081	276.91522	147.62799	77.59374	
167	1.660	274.99884	148.90503	214.52420	276.94690	147.51407	77.87090	
168	1.670	274.97067	148.86507	214.90707	277.05731	147.54018	78.12029	
169	1.680	274.82529	149.02664	215.44475	276.98309	147.62611	78.67866	
170	1.690	274.70425	149.03584	215.96567	277.93610	147.37387	78.55574	
171	1.700	274.95599	148.99284	216.34233	276.96371	147.64871	79.71805	
172	1.710	275.22754	148.86470	216.72635	277.08350	147.62886	80.05191	
